<svg width="677" height="154" viewBox="0 0 677 154" fill="none" xmlns="http://www.w3.org/2000/svg">
<path fill-rule="evenodd" clip-rule="evenodd" d="M77.6914 150.418C46.2255 160.284 12.6112 142.716 2.74564 111.252C-7.1204 79.7855 10.4464 46.1721 41.9123 36.3061C42.1813 36.2218 42.4505 36.1424 42.72 36.063L42.8595 36.0218L116.549 12.9171L116.027 11.252C114.925 7.73638 116.887 3.98349 120.402 2.88151L128.613 0.306802C132.129 -0.795402 135.882 1.16642 136.984 4.68118L148.509 41.439C149.612 44.9553 147.65 48.7083 144.135 49.8105L135.923 52.3852C132.408 53.4876 128.655 51.5256 127.552 48.0098L127.035 46.3582L104.342 53.4735C109.881 59.6406 114.219 67.0591 116.857 75.4726C126.722 106.937 109.145 140.556 77.6914 150.418Z" fill="url(#paint0_linear_0_1)"/>
<g style="mix-blend-mode:luminosity">
<path fill-rule="evenodd" clip-rule="evenodd" d="M83.5345 57.6734C81.6968 56.4566 79.0681 55.0944 77.6898 54.7136C72.2011 53.0748 64.0484 53.957 58.4096 56.589C54.5912 54.8534 50.2348 53.9488 45.9081 54.2384C40.8593 54.5412 39.3205 55.0237 35.1794 57.753C33.3443 58.9309 31.0575 60.7775 30.1566 61.8884C26.0823 66.7054 23.4293 75.8212 24.0931 82.3909C24.1612 83.0538 24.2558 83.5605 24.3768 83.9087C22.0149 86.8757 20.1955 90.4427 19.2886 94.2936C18.0796 99.276 18.0765 100.918 19.4077 105.793C19.9681 107.943 21.0211 110.742 21.7949 111.967C25.1006 117.44 32.8514 122.902 39.1987 124.345C39.3558 124.381 39.5045 124.412 39.6449 124.438C41.9396 128.573 45.4289 132.317 49.7101 134.78C54.1196 137.358 55.675 137.821 60.6362 137.88C62.8177 137.933 65.7414 137.685 67.101 137.269C73.1376 135.563 80.309 129.5 83.3116 123.687C83.9963 122.356 84.1313 121.613 83.703 121.481C86.7248 120.675 89.6631 119.322 92.2482 117.419C96.3459 114.447 97.3919 113.207 99.4628 108.648C100.397 106.655 101.364 103.847 101.546 102.413C102.475 96.1047 99.9708 86.8852 95.9954 81.6251C95.3338 80.7529 94.8318 80.2807 94.4942 80.2169C94.6699 75.5182 93.6318 70.5149 91.264 66.1582C88.8344 61.6159 87.7451 60.3901 83.5345 57.6734ZM37.837 120.42C36.3419 116.133 36.1644 111.737 37.7055 108.114C40.6562 101.169 49.2021 99.3884 54.8163 104.485C56.9264 106.379 57.8106 108.207 59.2647 113.258C60.7865 118.33 61.6897 120.089 63.7998 121.983C68.7465 126.583 74.9926 127.025 80.2891 123.235C81.2685 122.522 82.0489 122.025 82.6332 121.742C75.3003 123.376 67.6665 121.822 63.5271 117.11C58.5177 111.413 60.4016 102.755 67.2411 99.7463C69.7924 98.6063 71.7858 98.5707 76.8933 99.387C82.0463 100.149 83.9858 100.067 86.5372 98.9268C92.6613 96.3227 95.5963 90.7397 94.3624 84.225C94.2986 83.9025 94.2428 83.5996 94.195 83.3164C93.4087 88.2925 91.1792 92.6398 87.662 95.0841C81.5278 99.3519 73.2959 96.2591 71.146 88.9463C70.3268 86.216 70.5211 84.2006 71.9046 79.1615C73.2407 74.0692 73.3829 72.1016 72.5637 69.3712C71.2148 64.5729 68.1014 61.2872 63.9698 60.0168C67.2962 62.7332 69.6447 66.1914 70.3026 69.9354C71.6234 77.4288 65.5108 83.7133 58.099 82.573C55.3249 82.1625 53.6023 81.1212 49.66 77.6881C45.6509 74.276 43.9497 73.3032 41.1756 72.8927C34.5858 71.796 29.1735 74.9238 26.841 81.0775C26.8143 81.1498 26.7877 81.221 26.7614 81.291C30.9939 77.2333 36.2986 74.9379 41.1967 75.6687C48.603 76.7698 52.6802 84.681 49.4216 91.4921C48.2173 94.0465 46.733 95.3831 42.3533 98.1083C37.9735 100.905 36.5598 102.242 35.3554 104.797C32.5745 110.433 33.5543 116.246 37.837 120.42Z" fill="#488AAF"/>
</g>
<path d="M201.2 118L209.7 57H190.8L192.7 43.5H245.7L243.8 57H225.2L216.7 118H201.2ZM260.223 119.2C255.689 119.2 251.923 118.2 248.923 116.2C245.989 114.2 243.923 111.4 242.723 107.8C241.589 104.2 241.356 99.9667 242.023 95.1L246.523 63.4H261.523L257.123 95.3C256.856 97.3667 257.023 99.2 257.623 100.8C258.223 102.333 259.223 103.533 260.623 104.4C262.023 105.267 263.689 105.7 265.623 105.7C267.623 105.7 269.423 105.267 271.023 104.4C272.623 103.533 273.956 102.333 275.023 100.8C276.156 99.2 276.856 97.3667 277.123 95.3L281.523 63.4H296.523L288.923 118H274.923L276.323 107.2L276.923 110C275.256 113.267 272.956 115.633 270.023 117.1C267.089 118.5 263.823 119.2 260.223 119.2ZM299.884 118L307.484 63.4H321.584L319.784 76.5L318.984 74.6C320.85 70 323.25 66.9 326.184 65.3C329.184 63.6333 332.584 62.8 336.384 62.8H339.584L337.784 75.8H333.084C329.417 75.8 326.284 76.9667 323.684 79.3C321.15 81.6333 319.55 85.0667 318.884 89.6L314.984 118H299.884ZM370.958 119.2C366.891 119.2 363.191 118.5 359.858 117.1C356.591 115.633 354.024 113.567 352.158 110.9L353.958 108L352.658 118H338.458L349.058 42.3H364.158L359.858 73.8L355.958 70.6C357.958 67.8667 360.524 65.8 363.658 64.4C366.858 62.9333 370.391 62.2 374.258 62.2C379.324 62.2 383.824 63.4 387.758 65.8C391.691 68.1333 394.791 71.3333 397.058 75.4C399.391 79.4 400.558 83.9333 400.558 89C400.558 93.1333 399.791 97.0333 398.258 100.7C396.724 104.367 394.591 107.6 391.858 110.4C389.191 113.133 386.058 115.3 382.458 116.9C378.924 118.433 375.091 119.2 370.958 119.2ZM369.358 105.7C372.424 105.7 375.124 104.967 377.458 103.5C379.791 102.033 381.624 100.033 382.958 97.5C384.291 94.9667 384.958 92.1333 384.958 89C384.958 86.4 384.424 84.1 383.358 82.1C382.291 80.1 380.791 78.5333 378.858 77.4C376.991 76.2667 374.758 75.7 372.158 75.7C369.158 75.7 366.491 76.4667 364.158 78C361.891 79.4667 360.124 81.4667 358.858 84C357.591 86.5333 356.958 89.3667 356.958 92.5C356.958 95.1 357.458 97.4 358.458 99.4C359.524 101.4 360.991 102.967 362.858 104.1C364.724 105.167 366.891 105.7 369.358 105.7ZM435.145 119.2C429.945 119.2 425.245 118.067 421.045 115.8C416.845 113.467 413.512 110.267 411.045 106.2C408.579 102.133 407.345 97.5 407.345 92.3C407.345 88.1 408.145 84.1667 409.745 80.5C411.345 76.8333 413.579 73.6333 416.445 70.9C419.312 68.1667 422.612 66.0333 426.345 64.5C430.079 62.9667 434.079 62.2 438.345 62.2C443.545 62.2 448.245 63.3667 452.445 65.7C456.645 67.9667 459.945 71.1333 462.345 75.2C464.812 79.2 466.045 83.8333 466.045 89.1C466.045 93.3 465.245 97.2333 463.645 100.9C462.045 104.5 459.812 107.7 456.945 110.5C454.079 113.233 450.779 115.367 447.045 116.9C443.312 118.433 439.345 119.2 435.145 119.2ZM435.345 105.7C438.345 105.7 440.979 104.967 443.245 103.5C445.512 101.967 447.279 99.9333 448.545 97.4C449.812 94.8667 450.445 92.0333 450.445 88.9C450.445 86.3 449.945 84.0333 448.945 82.1C447.945 80.1 446.512 78.5333 444.645 77.4C442.845 76.2667 440.679 75.7 438.145 75.7C435.145 75.7 432.479 76.4667 430.145 78C427.879 79.4667 426.112 81.4667 424.845 84C423.579 86.5333 422.945 89.3667 422.945 92.5C422.945 95.1 423.445 97.4 424.445 99.4C425.445 101.333 426.879 102.867 428.745 104C430.612 105.133 432.812 105.7 435.345 105.7ZM492.273 118L477.173 43.5H493.573L504.373 103.3H500.773L528.373 43.5H546.173L510.273 118H492.273ZM574.264 119.2C568.264 119.2 563.031 117.933 558.564 115.4C554.164 112.867 550.864 109.433 548.664 105.1C546.464 100.7 545.731 95.7667 546.464 90.3L552.964 43.5H568.464L561.964 90.1C561.564 93.0333 561.831 95.6667 562.764 98C563.764 100.267 565.331 102.033 567.464 103.3C569.597 104.567 572.131 105.2 575.064 105.2C577.931 105.2 580.564 104.567 582.964 103.3C585.364 102.033 587.364 100.2 588.964 97.8C590.564 95.4 591.597 92.5667 592.064 89.3L598.464 43.5H613.964L607.264 91.1C606.531 96.5667 604.631 101.433 601.564 105.7C598.497 109.9 594.597 113.2 589.864 115.6C585.197 118 579.997 119.2 574.264 119.2ZM615.827 118L626.227 43.5H676.327L674.427 57H639.827L637.527 73.9H670.127L668.227 87.4H635.627L633.227 104.5H667.827L665.927 118H615.827Z" fill="white"/>
<defs>
<linearGradient id="paint0_linear_0_1" x1="139.324" y1="19.808" x2="-0.176316" y2="144.808" gradientUnits="userSpaceOnUse">
<stop stop-color="#4EFF9F"/>
<stop offset="1" stop-color="#B0BDFF"/>
</linearGradient>
</defs>
</svg>
