<svg width="149" height="154" viewBox="0 0 149 154" fill="none" xmlns="http://www.w3.org/2000/svg">
<path fill-rule="evenodd" clip-rule="evenodd" d="M77.6914 150.418C46.2255 160.284 12.6112 142.716 2.74564 111.252C-7.1204 79.7855 10.4464 46.1721 41.9123 36.3061C42.1813 36.2218 42.4505 36.1424 42.72 36.063L42.8595 36.0218L116.549 12.9171L116.027 11.252C114.925 7.73638 116.887 3.98349 120.402 2.88151L128.613 0.306802C132.129 -0.795402 135.882 1.16642 136.984 4.68118L148.509 41.439C149.612 44.9553 147.65 48.7083 144.135 49.8105L135.923 52.3852C132.408 53.4876 128.655 51.5256 127.552 48.0098L127.035 46.3582L104.342 53.4735C109.881 59.6406 114.219 67.0591 116.857 75.4726C126.722 106.937 109.145 140.556 77.6914 150.418Z" fill="url(#paint0_linear_0_1)"/>
<g style="mix-blend-mode:luminosity">
<path fill-rule="evenodd" clip-rule="evenodd" d="M83.5345 57.6734C81.6968 56.4566 79.0681 55.0944 77.6898 54.7136C72.2011 53.0748 64.0484 53.957 58.4096 56.589C54.5912 54.8534 50.2348 53.9488 45.9081 54.2384C40.8593 54.5412 39.3205 55.0237 35.1794 57.753C33.3443 58.9309 31.0575 60.7775 30.1566 61.8884C26.0823 66.7054 23.4293 75.8212 24.0931 82.3909C24.1612 83.0538 24.2558 83.5605 24.3768 83.9087C22.0149 86.8757 20.1955 90.4427 19.2886 94.2936C18.0796 99.276 18.0765 100.918 19.4077 105.793C19.9681 107.943 21.0211 110.742 21.7949 111.967C25.1006 117.44 32.8514 122.902 39.1987 124.345C39.3558 124.381 39.5045 124.412 39.6449 124.438C41.9396 128.573 45.4289 132.317 49.7101 134.78C54.1196 137.358 55.675 137.821 60.6362 137.88C62.8177 137.933 65.7414 137.685 67.101 137.269C73.1376 135.563 80.309 129.5 83.3116 123.687C83.9963 122.356 84.1313 121.613 83.703 121.481C86.7248 120.675 89.6631 119.322 92.2482 117.419C96.3459 114.447 97.3919 113.207 99.4628 108.648C100.397 106.655 101.364 103.847 101.546 102.413C102.475 96.1047 99.9708 86.8852 95.9954 81.6251C95.3338 80.7529 94.8318 80.2807 94.4942 80.2169C94.6699 75.5182 93.6318 70.5149 91.264 66.1582C88.8344 61.6159 87.7451 60.3901 83.5345 57.6734ZM37.837 120.42C36.3419 116.133 36.1644 111.737 37.7055 108.114C40.6562 101.169 49.2021 99.3884 54.8163 104.485C56.9264 106.379 57.8106 108.207 59.2647 113.258C60.7865 118.33 61.6897 120.089 63.7998 121.983C68.7465 126.583 74.9926 127.025 80.2891 123.235C81.2685 122.522 82.0489 122.025 82.6332 121.742C75.3003 123.376 67.6665 121.822 63.5271 117.11C58.5177 111.413 60.4016 102.755 67.2411 99.7463C69.7924 98.6063 71.7858 98.5707 76.8933 99.387C82.0463 100.149 83.9858 100.067 86.5372 98.9268C92.6613 96.3227 95.5963 90.7397 94.3624 84.225C94.2986 83.9025 94.2428 83.5996 94.195 83.3164C93.4087 88.2925 91.1792 92.6398 87.662 95.0841C81.5278 99.3519 73.2959 96.2591 71.146 88.9463C70.3268 86.216 70.5211 84.2006 71.9046 79.1615C73.2407 74.0692 73.3829 72.1016 72.5637 69.3712C71.2148 64.5729 68.1014 61.2872 63.9698 60.0168C67.2962 62.7332 69.6447 66.1914 70.3026 69.9354C71.6234 77.4288 65.5108 83.7133 58.099 82.573C55.3249 82.1625 53.6023 81.1212 49.66 77.6881C45.6509 74.276 43.9497 73.3032 41.1756 72.8927C34.5858 71.796 29.1735 74.9238 26.841 81.0775C26.8143 81.1498 26.7877 81.221 26.7614 81.291C30.9939 77.2333 36.2986 74.9379 41.1967 75.6687C48.603 76.7698 52.6802 84.681 49.4216 91.4921C48.2173 94.0465 46.733 95.3831 42.3533 98.1083C37.9735 100.905 36.5598 102.242 35.3554 104.797C32.5745 110.433 33.5543 116.246 37.837 120.42Z" fill="#488AAF"/>
</g>
<defs>
<linearGradient id="paint0_linear_0_1" x1="139.324" y1="19.808" x2="-0.176316" y2="144.808" gradientUnits="userSpaceOnUse">
<stop stop-color="#4EFF9F"/>
<stop offset="1" stop-color="#B0BDFF"/>
</linearGradient>
</defs>
</svg>
